<?xml version="1.0" encoding="utf-8"?>
<!-- Generator: Adobe Illustrator 15.0.0, SVG Export Plug-In . SVG Version: 6.00 Build 0)  -->
<!DOCTYPE svg PUBLIC "-//W3C//DTD SVG 1.1 Basic//EN" "http://www.w3.org/Graphics/SVG/1.1/DTD/svg11-basic.dtd" [
	<!ENTITY ns_extend "http://ns.adobe.com/Extensibility/1.0/">
	<!ENTITY ns_ai "http://ns.adobe.com/AdobeIllustrator/10.0/">
	<!ENTITY ns_graphs "http://ns.adobe.com/Graphs/1.0/">
	<!ENTITY ns_vars "http://ns.adobe.com/Variables/1.0/">
	<!ENTITY ns_imrep "http://ns.adobe.com/ImageReplacement/1.0/">
	<!ENTITY ns_sfw "http://ns.adobe.com/SaveForWeb/1.0/">
	<!ENTITY ns_custom "http://ns.adobe.com/GenericCustomNamespace/1.0/">
	<!ENTITY ns_adobe_xpath "http://ns.adobe.com/XPath/1.0/">
]>
<svg version="1.1" baseProfile="basic" id="Layer_1" xmlns:x="&ns_extend;" xmlns:i="&ns_ai;" xmlns:graph="&ns_graphs;"
	 xmlns="http://www.w3.org/2000/svg" xmlns:xlink="http://www.w3.org/1999/xlink" x="0px" y="0px" width="792px" height="612px"
	 viewBox="0 0 792 612" xml:space="preserve">
<metadata>
	<sfw  xmlns="&ns_sfw;">
		<slices></slices>
		<sliceSourceBounds  height="413.745117" width="546.866211" y="-520.301758" x="108.798828" bottomLeftOrigin="true">
			</sliceSourceBounds>
	</sfw>
</metadata>
<g>
	<g>
		<g>
			<polygon style="fill:none;stroke:#010101;" points="456.754883,402.563477 449.124023,398.116211 441.459961,402.496094 
				441.424805,411.326172 449.050781,415.767578 456.713867,411.394531 			"/>
			<polygon style="fill:none;stroke:#010101;" points="471.986328,402.496094 464.355469,398.054688 456.692383,402.427734 
				456.65625,411.258789 464.282227,415.705078 471.946289,411.326172 			"/>
			<polygon style="fill:none;stroke:#010101;" points="464.350586,415.944336 456.724609,411.494141 449.060547,415.876953 
				449.023438,424.703125 456.646484,429.154297 464.30957,424.770508 			"/>
			<polygon style="fill:none;stroke:#010101;" points="479.669922,415.725586 472.043945,411.273438 464.380859,415.65332 
				464.345703,424.483398 471.96582,428.930664 479.634766,424.551758 			"/>
			<polygon style="fill:none;stroke:#010101;" points="464.292969,389.275391 456.671875,384.824219 449.007812,389.202148 
				448.967773,398.033203 456.59375,402.485352 464.256836,398.09668 			"/>
			<polygon style="fill:none;stroke:#010101;" points="449.066406,389.337891 441.439453,384.891602 433.776367,389.270508 
				433.735352,398.09668 441.361328,402.547852 449.023438,398.168945 			"/>
			<polygon style="fill:none;stroke:#010101;" points="449.143555,415.611328 441.517578,411.15918 433.854492,415.538086 
				433.818359,424.369141 441.439453,428.821289 449.103516,424.4375 			"/>
			<polygon style="fill:none;stroke:#010101;" points="441.367188,402.537109 433.741211,398.09668 426.077148,402.475586 
				426.035156,411.294922 433.663086,415.74707 441.324219,411.368164 			"/>
		</g>
		<path style="fill:none;stroke:#010101;" d="M447.339844,418.592773"/>
	</g>
	<g>
		<g>
			<polygon style="fill:none;stroke:#010101;" points="344.995117,468.146484 341.080566,460.238281 332.271484,459.681641 
				327.380859,467.026367 331.295898,474.93457 340.106445,475.49707 			"/>
			<polygon style="fill:none;stroke:#010101;" points="357.746094,476.476562 353.831543,468.569336 345.022461,468.006836 
				340.131836,475.351562 344.046875,483.264648 352.857422,483.828125 			"/>
			<polygon style="fill:none;stroke:#010101;" points="343.973633,483.503906 340.059082,475.59082 331.245117,475.032227 
				326.359375,482.378906 330.274414,490.291992 339.084961,490.854492 			"/>
			<polygon style="fill:none;stroke:#010101;" points="356.885742,491.750977 352.971191,483.837891 344.162109,483.274414 
				339.266602,490.630859 343.186523,498.539062 351.99707,499.102539 			"/>
			<polygon style="fill:none;stroke:#010101;" points="358.611816,461.204102 354.691895,453.295898 345.882812,452.738281 
				340.992188,460.077148 344.912109,467.990234 353.71582,468.553711 			"/>
			<polygon style="fill:none;stroke:#010101;" points="345.855469,452.873047 341.940918,444.964844 333.131836,444.407227 
				328.241211,451.751953 332.15625,459.660156 340.966797,460.223633 			"/>
			<polygon style="fill:none;stroke:#010101;" points="331.462402,474.850586 327.541992,466.943359 318.733398,466.379883 
				313.842773,473.736328 317.764648,481.636719 326.573242,482.200195 			"/>
			<polygon style="fill:none;stroke:#010101;" points="332.161133,459.660156 328.246582,451.74707 319.4375,451.18457 
				314.546875,458.535156 318.461914,466.447266 327.272461,467.010742 			"/>
		</g>
		<path style="fill:none;stroke:#010101;" d="M328.319336,476.352539"/>
	</g>
	<g>
		<g>
			<polygon style="fill:none;stroke:#010101;" points="483.867188,320.423828 476.241211,315.980469 468.577148,320.361328 
				468.537109,329.181641 476.163086,333.633789 483.826172,329.253906 			"/>
			<polygon style="fill:none;stroke:#010101;" points="499.100586,320.361328 491.472656,315.915039 483.810547,320.293945 
				483.768555,329.119141 491.394531,333.570312 499.057617,329.191406 			"/>
			<polygon style="fill:none;stroke:#010101;" points="491.462891,333.805664 483.835938,329.358398 476.177734,333.737305 
				476.137695,342.568359 483.763672,347.009766 491.426758,342.635742 			"/>
			<polygon style="fill:none;stroke:#010101;" points="506.78418,333.586914 499.15625,329.139648 491.495117,333.518555 
				491.457031,342.348633 499.083984,346.791016 506.74707,342.412109 			"/>
			<polygon style="fill:none;stroke:#010101;" points="491.410156,307.136719 483.78418,302.687012 476.120117,307.068359 
				476.080078,315.893555 483.706055,320.339844 491.369141,315.960938 			"/>
			<polygon style="fill:none;stroke:#010101;" points="476.177734,307.201172 468.551758,302.754883 460.888672,307.133789 
				460.852539,315.958984 468.473633,320.40332 476.137695,316.026367 			"/>
			<polygon style="fill:none;stroke:#010101;" points="476.250977,333.47168 468.634766,329.025391 460.966797,333.404297 
				460.925781,342.234375 468.551758,346.675781 476.220703,342.296875 			"/>
			<polygon style="fill:none;stroke:#010101;" points="468.478516,320.40332 460.852539,315.954102 453.189453,320.330078 
				453.147461,329.161133 460.780273,333.601562 468.436523,329.228516 			"/>
		</g>
		<path style="fill:none;stroke:#010101;" d="M474.452148,336.454102"/>
	</g>
	<g>
		<g>
			<polygon style="fill:none;stroke:#010101;" points="276.399414,384.699219 282.893555,378.719727 280.960938,370.113281 
				272.540527,367.475586 266.046387,373.450195 267.976074,382.066406 			"/>
			<polygon style="fill:none;stroke:#010101;" points="271.984375,399.273438 278.473145,393.299805 276.54541,384.688477 
				268.12207,382.050781 261.625977,388.030273 263.560547,396.647461 			"/>
			<polygon style="fill:none;stroke:#010101;" points="261.381836,388.024414 267.870605,382.041016 265.936035,373.433594 
				257.517578,370.801758 251.023438,376.775391 252.951172,385.391602 			"/>
			<polygon style="fill:none;stroke:#010101;" points="257.084961,402.735352 263.575684,396.756836 261.646484,388.144531 
				253.217773,385.511719 246.726562,391.485352 248.65625,400.102539 			"/>
			<polygon style="fill:none;stroke:#010101;" points="286.881836,395.823242 293.382812,389.838867 291.442871,381.226562 
				283.024414,378.594727 276.530273,384.574219 278.462891,393.185547 			"/>
			<polygon style="fill:none;stroke:#010101;" points="291.309082,381.243164 297.803223,375.263672 295.868652,366.651367 
				287.439941,364.013672 280.950684,369.998047 282.878418,378.610352 			"/>
			<polygon style="fill:none;stroke:#010101;" points="266.171875,373.595703 272.666504,367.610352 270.733398,358.999023 
				262.308105,356.361328 255.818848,362.345703 257.746582,370.958008 			"/>
			<polygon style="fill:none;stroke:#010101;" points="280.956055,369.998047 287.445312,364.025391 285.512207,355.413086 
				277.086914,352.775391 270.597656,358.759766 272.525391,367.371094 			"/>
		</g>
		<path style="fill:none;stroke:#010101;" d="M263.857422,370.989258"/>
	</g>
	<path style="fill:none;stroke:#010101;" d="M332.281738,445.189453c-27.612793-11.384766-29.932129,40.263672-21.498535,55.439453
		c11.389648,20.513672,34.780762,22.764648,51.853516,15.174805c17.071289-7.585938,40.070312-22.573242,26.559082-51.852539
		c-7.590332-16.447266-25.292969-3.795898-22.014648,8.992188c2.357422,9.18457,16.95752,7.448242,16.95752,7.448242"/>
	<path style="fill:none;stroke:#010101;" d="M655.543945,226.320801c-30.360352-7.590332-166.942383,11.382324-204.893555,75.881836
		c-16.961914,28.845215-10.966797,40.48584-11.378906,55.01416c-0.413086,14.533203-2.783203,22.201172-23.932617,31.266602
		c-11.807617,5.056641-34.149414,0.421875-47.224121,13.913086c-14.590332,15.060547-10.534668,40.472656-24.448242,45.535156"/>
	<path style="fill:none;stroke:#010101;" d="M287.168457,364.035156c5.901855-12.230469,20.074707-23.041016,45.858398-3.889648
		c18.859863,14.00293,35.933105,41.829102,35.933105,41.829102"/>
	<path style="fill:none;stroke:#010101;" d="M438.947266,359.8125c-17.708008,5.900391-25.250977,19.069336-17.708008,31.199219
		c3.993164,6.416992,12.501953,7.084961,12.501953,7.084961"/>
	<path style="fill:none;stroke:#010101;" d="M342.921875,368.914062c-2.633789,21.257812-14.028809,34.378906-20.336426,42.339844
		c-40.263672,50.793945-101.140137,61.845703-106.453125,63.232422c-51.435059,13.490234-57.794434-32.039062-34.998535-32.039062"
		/>
	<g>
		<g>
			<polygon style="fill:#FFFFFF;stroke:#010101;" points="245.335449,472.609375 244.575195,463.810547 236.58252,460.067383 
				229.348145,465.124023 230.103516,473.912109 238.094238,477.661133 			"/>
			<polygon style="fill:#FFFFFF;stroke:#010101;" points="254.15625,485.020508 253.405762,476.227539 245.413086,472.483398 
				238.172363,477.535156 238.924316,486.329102 246.919922,490.072266 			"/>
			<polygon style="fill:#FFFFFF;stroke:#010101;" points="238.772949,486.527344 238.01123,477.728516 230.025391,473.985352 
				222.784668,479.041992 223.534668,487.831055 231.532227,491.574219 			"/>
			<polygon style="fill:#FFFFFF;stroke:#010101;" points="247.775391,498.923828 247.018555,490.125 239.027832,486.381836 
				231.786621,491.438477 232.543457,500.232422 240.534668,503.975586 			"/>
			<polygon style="fill:#FFFFFF;stroke:#010101;" points="260.546875,471.118164 259.791504,462.324219 251.793945,458.585938 
				244.552734,463.632812 245.30957,472.432617 253.305664,476.174805 			"/>
			<polygon style="fill:#FFFFFF;stroke:#010101;" points="251.71582,458.701172 250.960449,449.913086 242.969727,446.168945 
				235.733887,451.21582 236.489258,460.014648 244.47998,463.757812 			"/>
			<polygon style="fill:#FFFFFF;stroke:#010101;" points="230.286621,473.902344 229.529785,465.101562 221.539062,461.360352 
				214.297852,466.412109 215.058105,475.206055 223.050781,478.949219 			"/>
			<polygon style="fill:#FFFFFF;stroke:#010101;" points="236.494141,460.014648 235.739258,451.21582 227.741211,447.472656 
				220.501953,452.529297 221.262207,461.317383 229.248047,465.066406 			"/>
		</g>
		<path style="fill:#FFFFFF;stroke:#010101;" d="M226.814941,474.141602"/>
	</g>
	<path style="fill:none;stroke:#010101;" d="M210.863281,475.96582c-10.118652-13.490234-0.704102-32.267578,8.637695-33.518555
		c12.650391-1.688477,16.867676,8.137695,16.867676,8.137695"/>
	<path style="fill:none;stroke:#010101;" d="M336.076172,361.501953c-2.52832,4.210938-7,8.788086-15.179199,6.745117
		c-16.864258-4.211914-16.864258-35.416016,0.838379-38.78418"/>
	<g>
		<g>
			<polygon style="fill:none;stroke:#010101;" points="343.63623,323.358398 334.84082,322.633789 329.816406,329.885742 
				333.580078,337.866211 342.378906,338.595703 347.410156,331.339844 			"/>
			<polygon style="fill:none;stroke:#010101;" points="357.355957,316.738281 348.560547,316.007812 343.530762,323.259766 
				347.299805,331.246094 356.098633,331.975586 361.125,324.719727 			"/>
			<polygon style="fill:none;stroke:#010101;" points="356.266602,332.163086 347.466309,331.433594 342.431152,338.689453 
				346.200195,346.670898 354.999023,347.395508 360.030273,340.138672 			"/>
			<polygon style="fill:none;stroke:#010101;" points="369.991211,325.354492 361.197754,324.629883 356.166504,331.887695 
				359.935547,339.868164 368.73584,340.597656 373.760254,333.341797 			"/>
			<polygon style="fill:none;stroke:#010101;" points="344.71875,308.114258 335.919922,307.386719 330.895508,314.642578 
				334.65918,322.624023 343.462891,323.353516 348.487793,316.09668 			"/>
			<polygon style="fill:none;stroke:#010101;" points="331.003906,314.738281 322.210449,314.008789 317.173828,321.268555 
				320.942871,329.244141 329.738281,329.973633 334.768066,322.717773 			"/>
			<polygon style="fill:none;stroke:#010101;" points="342.394043,338.408203 333.600586,337.683594 328.570801,344.935547 
				332.339355,352.920898 341.138184,353.650391 346.163086,346.394531 			"/>
			<polygon style="fill:none;stroke:#010101;" points="329.738281,329.96875 320.942871,329.239258 315.917969,336.490234 
				319.687012,344.475586 328.48584,345.206055 333.512207,337.949219 			"/>
		</g>
		<path style="fill:none;stroke:#010101;" d="M342.05127,341.879883"/>
	</g>
	<path style="fill:none;stroke:#010101;" d="M325.95752,444.135742c-0.420898,1.261719,0.844727,4.639648,2.52832,6.324219"/>
	<path style="fill:none;stroke:#010101;" d="M450.650391,302.202637c-4.113281,1.962402-9.174805,1.962402-9.174805,5.335449
		c0,3.37207,7.55957,12.614258,19.376953,8.416016"/>
	<g>
		<g>
			<g>
				<polygon style="fill:none;stroke:#010101;" points="607.136719,334.811523 603.858398,328.295898 596.575195,327.87793 
					592.577148,333.97168 595.850586,340.483398 603.133789,340.905273 				"/>
				<polygon style="fill:none;stroke:#010101;" points="617.713867,341.629883 614.435547,335.114258 607.157227,334.696289 
					603.148438,340.785156 606.432617,347.301758 613.710938,347.71875 				"/>
				<polygon style="fill:none;stroke:#010101;" points="606.371094,347.5 603.09082,340.983398 595.814453,340.566406 
					591.806641,346.660156 595.084961,353.176758 602.366211,353.59375 				"/>
				<polygon style="fill:none;stroke:#010101;" points="617.082031,354.245117 613.803711,347.734375 606.522461,347.311523 
					602.517578,353.411133 605.797852,359.921875 613.079102,360.34375 				"/>
				<polygon style="fill:none;stroke:#010101;" points="618.344727,329.003906 615.066406,322.488281 607.783203,322.071289 
					603.785156,328.165039 607.058594,334.675781 614.34668,335.103516 				"/>
				<polygon style="fill:none;stroke:#010101;" points="607.767578,322.185547 604.489258,315.674805 597.210938,315.255859 
					593.203125,321.351562 596.486328,327.868164 603.757812,328.28418 				"/>
				<polygon style="fill:none;stroke:#010101;" points="595.986328,340.419922 592.712891,333.904297 585.430664,333.487305 
					581.433594,339.576172 584.706055,346.092773 591.988281,346.508789 				"/>
				<polygon style="fill:none;stroke:#010101;" points="596.492188,327.863281 593.208008,321.34668 585.936523,320.928711 
					581.926758,327.022461 585.200195,333.539062 592.483398,333.957031 				"/>
			</g>
			<path style="fill:none;stroke:#010101;" d="M593.396484,341.671875"/>
		</g>
		<g>
			<g>
				<polygon style="fill:none;stroke:#010101;" points="616.337891,297.299316 609.055664,296.84082 605.020508,302.916016 
					608.268555,309.447266 615.544922,309.904297 619.585938,303.829102 				"/>
				<polygon style="fill:none;stroke:#010101;" points="627.561523,291.604004 620.279297,291.147461 616.244141,297.221191 
					619.485352,303.752441 626.768555,304.208984 630.803711,298.133301 				"/>
				<polygon style="fill:none;stroke:#010101;" points="626.90918,304.362793 619.630859,303.903809 615.592773,309.979492 
					618.833984,316.508789 626.112305,316.967773 630.147461,310.895508 				"/>
				<polygon style="fill:none;stroke:#010101;" points="638.138672,298.519043 630.861328,298.062988 626.826172,304.13623 
					630.074219,310.667969 637.34082,311.126953 641.380859,305.050781 				"/>
				<polygon style="fill:none;stroke:#010101;" points="616.978516,284.688965 609.708008,284.230957 605.671875,290.306152 
					608.915039,296.835938 616.186523,297.293945 620.226562,291.21875 				"/>
				<polygon style="fill:none;stroke:#010101;" points="605.760742,290.381348 598.484375,289.925781 594.448242,295.998535 
					597.691406,302.533203 604.967773,302.989258 609.003906,296.914062 				"/>
				<polygon style="fill:none;stroke:#010101;" points="615.555664,309.750977 608.279297,309.291016 604.243164,315.367188 
					607.486328,321.899414 614.757812,322.352539 618.792969,316.282227 				"/>
				<polygon style="fill:none;stroke:#010101;" points="604.967773,302.983887 597.691406,302.52832 593.65625,308.600586 
					596.899414,315.126953 604.175781,315.588867 608.210938,309.515625 				"/>
			</g>
			<path style="fill:none;stroke:#010101;" d="M615.326172,312.617188"/>
		</g>
		<g>
			<g>
				<polygon style="fill:none;stroke:#010101;" points="570.583984,332.851562 574.587891,326.751953 571.308594,320.236328 
					564.03125,319.819336 560.027344,325.917969 563.306641,332.43457 				"/>
				<polygon style="fill:none;stroke:#010101;" points="569.978516,345.414062 573.983398,339.31543 570.698242,332.80957 
					563.421875,332.392578 559.418945,338.486328 562.702148,344.99707 				"/>
				<polygon style="fill:none;stroke:#010101;" points="559.214844,338.533203 563.222656,332.43457 559.944336,325.922852 
					552.663086,325.506836 548.658203,331.600586 551.943359,338.117188 				"/>
				<polygon style="fill:none;stroke:#010101;" points="558.740234,351.179688 562.732422,345.085938 559.458984,338.575195 
					552.172852,338.158203 548.179688,344.251953 551.458008,350.768555 				"/>
				<polygon style="fill:none;stroke:#010101;" points="581.229492,339.649414 585.227539,333.549805 581.942383,327.043945 
					574.666016,326.62793 570.667969,332.72168 573.941406,339.231445 				"/>
				<polygon style="fill:none;stroke:#010101;" points="581.833984,327.081055 585.836914,320.987305 582.552734,314.472656 
					575.269531,314.053711 571.277344,320.152344 574.549805,326.664062 				"/>
				<polygon style="fill:none;stroke:#010101;" points="560.158203,326.000977 564.161133,319.902344 560.882812,313.393555 
					553.599609,312.977539 549.59668,319.073242 552.879883,325.584961 				"/>
				<polygon style="fill:none;stroke:#010101;" points="571.282227,320.152344 575.28125,314.058594 571.996094,307.544922 
					564.719727,307.12793 560.72168,313.224609 563.995117,319.735352 				"/>
			</g>
			<path style="fill:none;stroke:#010101;" d="M557.775391,324.385742"/>
		</g>
		<g>
			<g>
				<polygon style="fill:none;stroke:#010101;" points="587.240234,295.748047 584.001953,289.216797 576.71875,288.760742 
					572.685547,294.835938 575.927734,301.365234 583.205078,301.824219 				"/>
				<polygon style="fill:none;stroke:#010101;" points="597.779297,302.616699 594.537109,296.084961 587.260742,295.630859 
					583.230469,301.70459 586.472656,308.238281 593.744141,308.692383 				"/>
				<polygon style="fill:none;stroke:#010101;" points="586.410156,308.431641 583.162109,301.902344 575.885742,301.446289 
					571.850586,307.521484 575.098633,314.053711 582.376953,314.506836 				"/>
				<polygon style="fill:none;stroke:#010101;" points="597.080078,315.236328 593.839844,308.705078 586.561523,308.246094 
					582.525391,314.324219 585.768555,320.851562 593.051758,321.310547 				"/>
				<polygon style="fill:none;stroke:#010101;" points="598.478516,289.999023 595.236328,283.469727 587.958984,283.013184 
					583.923828,289.086914 587.166992,295.615723 594.448242,296.07373 				"/>
				<polygon style="fill:none;stroke:#010101;" points="587.9375,283.130371 584.689453,276.601562 577.413086,276.143066 
					573.37793,282.218262 576.620117,288.747559 583.904297,289.204102 				"/>
				<polygon style="fill:none;stroke:#010101;" points="576.067383,301.300781 572.821289,294.769043 565.542969,294.310059 
					561.507812,300.385742 564.75,306.91748 572.033203,307.373047 				"/>
				<polygon style="fill:none;stroke:#010101;" points="576.630859,288.744629 573.389648,282.213379 566.111328,281.760254 
					562.070312,287.835449 565.318359,294.364258 572.595703,294.820801 				"/>
			</g>
			<path style="fill:none;stroke:#010101;" d="M573.467773,302.538574"/>
		</g>
		<g>
			<g>
				<polygon style="fill:none;stroke:#010101;" points="607.011719,265.240234 599.724609,264.836426 595.742188,270.94043 
					599.030273,277.445801 606.313477,277.850586 610.301758,271.748047 				"/>
				<polygon style="fill:none;stroke:#010101;" points="618.189453,259.463867 610.911133,259.060059 606.917969,265.162109 
					610.207031,271.669922 617.490234,272.071289 621.482422,265.972656 				"/>
				<polygon style="fill:none;stroke:#010101;" points="617.635742,272.225098 610.347656,271.821289 606.359375,277.925781 
					609.650391,284.431152 616.931641,284.834961 620.924805,278.733887 				"/>
				<polygon style="fill:none;stroke:#010101;" points="628.817383,266.300781 621.540039,265.896973 617.547852,272.000977 
					620.841797,278.507324 628.119141,278.913574 632.107422,272.808594 				"/>
				<polygon style="fill:none;stroke:#010101;" points="607.564453,252.625 600.283203,252.223145 596.294922,258.327637 
					599.578125,264.836426 606.860352,265.236816 610.853516,259.135742 				"/>
				<polygon style="fill:none;stroke:#010101;" points="596.382812,258.400879 589.099609,257.99707 585.112305,264.103516 
					588.402344,270.609375 595.683594,271.013184 599.671875,264.911133 				"/>
				<polygon style="fill:none;stroke:#010101;" points="606.318359,277.695801 599.041016,277.291992 595.042969,283.396973 
					598.342773,289.902344 605.619141,290.308594 609.607422,284.20459 				"/>
				<polygon style="fill:none;stroke:#010101;" points="595.683594,271.008301 588.402344,270.604492 584.40918,276.706055 
					587.698242,283.216797 594.979492,283.621094 598.972656,277.513672 				"/>
			</g>
			<path style="fill:none;stroke:#010101;" d="M606.115234,280.56543"/>
		</g>
		<g>
			<g>
				<polygon style="fill:none;stroke:#010101;" points="550.212891,306.388184 554.241211,300.314453 551.004883,293.783203 
					543.72168,293.324707 539.688477,299.399902 542.93457,305.929199 				"/>
				<polygon style="fill:none;stroke:#010101;" points="549.53418,318.954102 553.564453,312.87793 550.326172,306.349121 
					543.044922,305.890137 539.009766,311.962891 542.251953,318.495117 				"/>
				<polygon style="fill:none;stroke:#010101;" points="538.805664,312.007812 542.845703,305.935059 539.597656,299.405273 
					532.327148,298.946777 528.286133,305.019531 531.529297,311.551758 				"/>
				<polygon style="fill:none;stroke:#010101;" points="538.253906,324.65625 542.288086,318.583984 539.051758,312.048828 
					531.768555,311.595703 527.734375,317.668945 530.975586,324.197266 				"/>
				<polygon style="fill:none;stroke:#010101;" points="560.81543,313.248047 564.845703,307.175781 561.602539,300.644043 
					554.319336,300.18457 550.285156,306.260742 553.532227,312.791992 				"/>
				<polygon style="fill:none;stroke:#010101;" points="561.492188,300.685547 565.517578,294.609375 562.279297,288.080566 
					555.00293,287.619141 550.962891,293.697266 554.210938,300.226562 				"/>
				<polygon style="fill:none;stroke:#010101;" points="539.817383,299.48291 543.852539,293.410645 540.609375,286.881836 
					533.333008,286.422363 529.297852,292.496094 532.541016,299.027344 				"/>
				<polygon style="fill:none;stroke:#010101;" points="550.972656,293.699707 555.007812,287.624023 551.765625,281.094727 
					544.488281,280.636719 540.453125,286.711914 543.696289,293.240723 				"/>
			</g>
			<path style="fill:none;stroke:#010101;" d="M537.444336,297.85498"/>
		</g>
		<polygon style="fill:none;stroke:#010101;" points="562.702148,275.214844 555.418945,274.821289 551.4375,280.931152 
			554.731445,287.431641 562.019531,287.825195 565.998047,281.717773 		"/>
		<polygon style="fill:none;stroke:#010101;" points="574.128906,269.598145 566.851562,269.180664 562.847656,275.277832 
			566.131836,281.790527 573.410156,282.210938 577.413086,276.111816 		"/>
		<polygon style="fill:none;stroke:#010101;" points="585.326172,263.92334 578.043945,263.475586 574.019531,269.554199 
			577.277344,276.080566 584.548828,276.52832 588.579102,270.450195 		"/>
		<polygon style="fill:none;stroke:#010101;" points="552.125,268.401855 544.84375,267.953613 540.813477,274.03418 
			544.071289,280.563965 551.347656,281.009277 555.37793,274.928223 		"/>
		<polygon style="fill:none;stroke:#010101;" points="563.442383,262.620117 556.170898,262.169922 552.145508,268.250977 
			555.388672,274.779785 562.671875,275.227539 566.695312,269.146973 		"/>
		<polygon style="fill:none;stroke:#010101;" points="574.708008,257.081543 567.424805,256.630859 563.396484,262.711914 
			566.652344,269.238281 573.925781,269.686523 577.954102,263.606445 		"/>
		<polygon style="fill:none;stroke:#010101;" points="585.874023,251.386719 578.595703,250.940918 574.572266,257.019531 
			577.820312,263.545898 585.09668,263.994141 589.126953,257.916504 		"/>
	</g>
	<g>
		<g>
			<g>
				<polygon style="fill:none;stroke:#010101;" points="410.365234,197.169922 415.447266,202.398926 422.517578,200.605469 
					424.50293,193.588379 419.415039,188.365234 412.345703,190.15625 				"/>
				<polygon style="fill:none;stroke:#010101;" points="398.225586,193.857422 403.3125,199.080566 410.380859,197.292969 
					412.362305,190.273438 407.275391,185.047852 400.206055,186.840332 				"/>
				<polygon style="fill:none;stroke:#010101;" points="407.275391,184.841309 412.362305,190.069824 419.425781,188.276855 
					421.417969,181.260254 416.323242,176.031738 409.260742,177.824707 				"/>
				<polygon style="fill:none;stroke:#010101;" points="395.029785,181.629883 400.117188,186.856445 407.185547,185.062988 
					409.171875,178.045898 404.084961,172.820312 397.015625,174.611328 				"/>
				<polygon style="fill:none;stroke:#010101;" points="401.420898,206.083984 406.507812,211.30957 413.570312,209.519531 
					415.557617,202.502441 410.475586,197.274414 403.40625,199.067871 				"/>
				<polygon style="fill:none;stroke:#010101;" points="413.560547,209.399902 418.648438,214.625488 425.717773,212.834961 
					427.698242,205.818359 422.610352,200.589844 415.542969,202.382812 				"/>
				<polygon style="fill:none;stroke:#010101;" points="419.306641,188.472168 424.393555,193.697754 431.457031,191.907715 
					433.443359,184.888184 428.361328,179.659668 421.291992,181.456055 				"/>
				<polygon style="fill:none;stroke:#010101;" points="422.610352,200.595215 427.692383,205.820801 434.762695,204.029785 
					436.742188,197.01123 431.660156,191.785156 424.59082,193.575684 				"/>
			</g>
			<path style="fill:none;stroke:#010101;" d="M421.400391,186.499512"/>
		</g>
		<g>
			<g>
				<polygon style="fill:none;stroke:#010101;" points="412.883789,235.716797 419.951172,233.962402 421.974609,226.956543 
					416.918945,221.70166 409.838867,223.456543 407.821289,230.462402 				"/>
				<polygon style="fill:none;stroke:#010101;" points="403.891602,244.523926 410.963867,242.769531 412.987305,235.760742 
					407.931641,230.508789 400.852539,232.263672 398.829102,239.271973 				"/>
				<polygon style="fill:none;stroke:#010101;" points="400.668945,232.15918 407.749023,230.407227 409.771484,223.398926 
					404.714844,218.149414 397.636719,219.902832 395.618652,226.907227 				"/>
				<polygon style="fill:none;stroke:#010101;" points="391.724121,241.112305 398.793945,239.357422 400.814453,232.351562 
					395.764648,227.097168 388.685059,228.854492 386.662109,235.860352 				"/>
				<polygon style="fill:none;stroke:#010101;" points="416.058594,247.935547 423.136719,246.179199 425.154297,239.172852 
					420.091797,233.92041 413.024414,235.675293 411.001953,242.681152 				"/>
				<polygon style="fill:none;stroke:#010101;" points="425.045898,239.125977 432.118164,237.37207 434.141602,230.365723 
					429.083984,225.11084 422.011719,226.868164 419.988281,233.874023 				"/>
				<polygon style="fill:none;stroke:#010101;" points="409.875,223.607422 416.954102,221.852539 418.972656,214.844238 
					413.915039,209.592285 406.84082,211.346191 404.819336,218.355469 				"/>
				<polygon style="fill:none;stroke:#010101;" points="422.011719,226.873047 429.083984,225.119629 431.101562,218.112793 
					426.051758,212.86084 418.972656,214.615234 416.949219,221.618652 				"/>
			</g>
			<path style="fill:none;stroke:#010101;" d="M409.230469,220.802246"/>
		</g>
		<g>
			<g>
				<polygon style="fill:none;stroke:#010101;" points="445.807617,188.044434 443.827148,195.063965 448.910156,200.287109 
					455.984375,198.49707 457.964844,191.477539 452.876953,186.249023 				"/>
				<polygon style="fill:none;stroke:#010101;" points="442.602539,175.875488 440.626953,182.894043 445.714844,188.117188 
					452.782227,186.324707 454.758789,179.305176 449.674805,174.082031 				"/>
				<polygon style="fill:none;stroke:#010101;" points="454.94043,179.200684 452.955078,186.220215 458.042969,191.445801 
					465.110352,189.650391 467.097656,182.631348 462.004883,177.408203 				"/>
				<polygon style="fill:none;stroke:#010101;" points="451.588867,166.992188 449.614258,174.011719 454.701172,179.234863 
					461.769531,177.441895 463.750977,170.422363 458.65918,165.199219 				"/>
				<polygon style="fill:none;stroke:#010101;" points="433.615234,184.760742 431.639648,191.779297 436.727539,197.003418 
					443.790039,195.209961 445.772461,188.193848 440.68457,182.967285 				"/>
				<polygon style="fill:none;stroke:#010101;" points="436.820312,196.930664 434.84082,203.946777 439.922852,209.172363 
					446.990234,207.376953 448.972656,200.357422 443.884766,195.134277 				"/>
				<polygon style="fill:none;stroke:#010101;" points="457.813477,191.433105 455.832031,198.452637 460.925781,203.675781 
					467.988281,201.882324 469.970703,194.86377 464.881836,189.637207 				"/>
				<polygon style="fill:none;stroke:#010101;" points="448.967773,200.357422 446.985352,207.376953 452.074219,212.600098 
					459.142578,210.807129 461.123047,203.788086 456.035156,198.564453 				"/>
			</g>
			<path style="fill:none;stroke:#010101;" d="M460.576172,192.259766"/>
		</g>
		<g>
			<g>
				<polygon style="fill:none;stroke:#010101;" points="441.095703,228.437012 446.152344,233.688965 453.232422,231.932617 
					455.248047,224.92334 450.192383,219.673828 443.113281,221.428711 				"/>
				<polygon style="fill:none;stroke:#010101;" points="428.970703,225.059082 434.032227,230.311035 441.110352,228.554199 
					443.12793,221.550781 438.066406,216.295898 430.993164,218.053223 				"/>
				<polygon style="fill:none;stroke:#010101;" points="438.066406,216.089844 443.12793,221.341797 450.208008,219.585449 
					452.225586,212.579102 447.164062,207.327148 440.088867,209.083984 				"/>
				<polygon style="fill:none;stroke:#010101;" points="425.842773,212.813965 430.900391,218.065918 437.972656,216.311523 
					439.996094,209.305664 434.933594,204.053711 427.859375,205.808105 				"/>
				<polygon style="fill:none;stroke:#010101;" points="432.108398,237.299316 437.165039,242.550293 444.238281,240.796875 
					446.260742,233.791016 441.206055,228.536133 434.121094,230.294922 				"/>
				<polygon style="fill:none;stroke:#010101;" points="444.227539,240.679688 449.290039,245.931641 456.364258,244.174316 
					458.381836,237.168457 453.325195,231.916504 446.240234,233.67041 				"/>
				<polygon style="fill:none;stroke:#010101;" points="450.082031,219.780762 455.139648,225.032715 462.211914,223.276367 
					464.235352,216.27002 459.179688,211.017578 452.094727,212.772461 				"/>
				<polygon style="fill:none;stroke:#010101;" points="453.320312,231.921875 458.376953,237.170898 465.455078,235.41748 
					467.472656,228.410645 462.411133,223.15625 455.337891,224.913086 				"/>
			</g>
			<path style="fill:none;stroke:#010101;" d="M452.183594,217.818359"/>
		</g>
		<g>
			<g>
				<polygon style="fill:none;stroke:#010101;" points="431.425781,263.480469 438.489258,261.674316 440.454102,254.65332 
					435.356445,249.436523 428.293945,251.243164 426.327148,258.265137 				"/>
				<polygon style="fill:none;stroke:#010101;" points="422.501953,272.353027 429.55957,270.546875 431.529297,263.527344 
					426.4375,258.311523 419.367188,260.115723 417.402344,267.137695 				"/>
				<polygon style="fill:none;stroke:#010101;" points="419.191406,260.01709 426.260742,258.210938 428.21875,251.186035 
					423.125977,245.970703 416.058594,247.776855 414.098633,254.798828 				"/>
				<polygon style="fill:none;stroke:#010101;" points="410.302734,269.032227 417.37207,267.225586 419.336914,260.20459 
					414.239258,254.989258 407.179688,256.79541 405.209961,263.816406 				"/>
				<polygon style="fill:none;stroke:#010101;" points="434.689453,275.67334 441.751953,273.870117 443.728516,266.848145 
					438.625,261.629883 431.567383,263.436523 429.59668,270.458496 				"/>
				<polygon style="fill:none;stroke:#010101;" points="443.613281,266.801758 450.681641,264.997559 452.648438,257.973145 
					447.553711,252.757812 440.486328,254.563965 438.515625,261.585938 				"/>
				<polygon style="fill:none;stroke:#010101;" points="428.333984,251.39502 435.40332,249.588379 437.363281,242.566406 
					432.264648,237.351074 425.202148,239.157227 423.236328,246.176758 				"/>
				<polygon style="fill:none;stroke:#010101;" points="440.486328,254.569336 447.553711,252.762695 449.518555,245.744141 
					444.426758,240.525879 437.358398,242.334961 435.393555,249.355957 				"/>
			</g>
			<path style="fill:none;stroke:#010101;" d="M427.662109,248.592285"/>
		</g>
		<g>
			<g>
				<polygon style="fill:none;stroke:#010101;" points="473.207031,207.145508 471.183594,214.153809 476.241211,219.405762 
					483.320312,217.651367 485.34375,210.642578 480.276367,205.390625 				"/>
				<polygon style="fill:none;stroke:#010101;" points="470.069336,194.959473 468.045898,201.966309 473.108398,207.218262 
					480.186523,205.463867 482.204102,198.458008 477.141602,193.205566 				"/>
				<polygon style="fill:none;stroke:#010101;" points="482.386719,198.353516 480.364258,205.361816 485.420898,210.61377 
					492.499023,208.859863 494.516602,201.854004 489.464844,196.598633 				"/>
				<polygon style="fill:none;stroke:#010101;" points="479.108398,186.126953 477.09082,193.135254 482.148438,198.384766 
					489.220703,196.630371 491.238281,189.624512 486.186523,184.369629 				"/>
				<polygon style="fill:none;stroke:#010101;" points="461.03418,203.792969 459.011719,210.796387 464.068359,216.050781 
					471.148438,214.296875 473.166016,207.291016 468.114258,202.035645 				"/>
				<polygon style="fill:none;stroke:#010101;" points="464.162109,215.978027 462.146484,222.987305 467.206055,228.236816 
					474.286133,226.481934 476.303711,219.476074 471.24707,214.226562 				"/>
				<polygon style="fill:none;stroke:#010101;" points="485.192383,210.598633 483.169922,217.609375 488.224609,222.858887 
					495.30957,221.10791 497.327148,214.098633 492.270508,208.849121 				"/>
				<polygon style="fill:none;stroke:#010101;" points="476.298828,219.476074 474.28125,226.481934 479.337891,231.733887 
					486.410156,229.980469 488.428711,222.973633 483.373047,217.71875 				"/>
			</g>
			<path style="fill:none;stroke:#010101;" d="M487.944336,211.442871"/>
		</g>
		<polygon style="fill:none;stroke:#010101;" points="470.672852,240.632812 477.742188,238.81543 479.697266,231.788574 
			474.592773,226.583984 467.530273,228.400391 465.575195,235.422363 		"/>
		<polygon style="fill:none;stroke:#010101;" points="461.466797,249.429199 468.53125,247.63623 470.516602,240.616699 
			465.429688,235.391113 458.360352,237.186523 456.375,244.203125 		"/>
		<polygon style="fill:none;stroke:#010101;" points="452.495117,258.210938 459.575195,256.445801 461.587891,249.436523 
			456.515625,244.19043 449.441406,245.95459 447.428711,252.963867 		"/>
		<polygon style="fill:none;stroke:#010101;" points="482.814453,243.947754 489.882812,242.183105 491.895508,235.171875 
			486.833008,229.925293 479.754883,231.689941 477.748047,238.698242 		"/>
		<polygon style="fill:none;stroke:#010101;" points="473.754883,252.867188 480.828125,251.108398 482.839844,244.09375 
			477.77832,238.849609 470.700195,240.611816 468.6875,247.620117 		"/>
		<polygon style="fill:none;stroke:#010101;" points="464.68457,261.539551 471.757812,259.774414 473.770508,252.765137 
			468.708008,247.519043 461.628906,249.283203 459.617188,256.29248 		"/>
		<polygon style="fill:none;stroke:#010101;" points="455.748047,270.327637 462.823242,268.567871 464.830078,261.557129 
			459.768555,256.310059 452.694336,258.075195 450.681641,265.081055 		"/>
	</g>
	<g>
		<g>
			<g>
				<polygon style="fill:none;stroke:#010101;" points="148.740723,364.044922 150.689453,371.072266 157.748047,372.901367 
					162.861816,367.699219 160.913086,360.677734 153.854492,358.84375 				"/>
				<polygon style="fill:none;stroke:#010101;" points="139.685547,355.298828 141.635742,362.325195 148.693848,364.160156 
					153.806641,358.958008 151.863281,351.930664 144.799316,350.100586 				"/>
				<polygon style="fill:none;stroke:#010101;" points="151.962402,351.748047 153.90625,358.780273 160.964844,360.604492 
					166.078125,355.402344 164.134766,348.375977 157.076172,346.550781 				"/>
				<polygon style="fill:none;stroke:#010101;" points="142.766602,343.042969 144.716309,350.075195 151.773926,351.899414 
					156.888672,346.702148 154.933594,339.669922 147.880371,337.845703 				"/>
				<polygon style="fill:none;stroke:#010101;" points="136.609863,367.558594 138.55957,374.585938 145.612305,376.410156 
					150.731934,371.21875 148.782227,364.191406 141.723633,362.356445 				"/>
				<polygon style="fill:none;stroke:#010101;" points="145.665039,376.300781 147.609375,383.333008 154.666992,385.158203 
					159.775879,379.959961 157.832031,372.932617 150.773438,371.103516 				"/>
				<polygon style="fill:none;stroke:#010101;" points="160.76709,360.713867 162.710938,367.746094 169.769043,369.571289 
					174.882812,364.368164 172.933105,357.341797 165.880859,355.517578 				"/>
				<polygon style="fill:none;stroke:#010101;" points="157.827148,372.932617 159.770996,379.959961 166.829102,381.790039 
					171.942871,376.587891 169.999023,369.560547 162.940918,367.731445 				"/>
			</g>
			<path style="fill:none;stroke:#010101;" d="M163.544922,359.989258"/>
		</g>
		<g>
			<g>
				<polygon style="fill:none;stroke:#010101;" points="132.408203,399.044922 139.455566,400.916992 144.595703,395.740234 
					142.688477,388.702148 135.640137,386.835938 130.495117,392.007812 				"/>
				<polygon style="fill:none;stroke:#010101;" points="120.288574,402.449219 127.341309,404.30957 132.481445,399.138672 
					130.57373,392.100586 123.520508,390.235352 118.385742,395.40625 				"/>
				<polygon style="fill:none;stroke:#010101;" points="123.416016,390.0625 130.463867,391.929688 135.603516,386.75293 
					133.701172,379.714844 126.647949,377.848633 121.507812,383.020508 				"/>
				<polygon style="fill:none;stroke:#010101;" points="111.265137,393.602539 118.3125,395.46875 123.452637,390.297852 
					121.544434,383.259766 114.49707,381.393555 109.356934,386.56543 				"/>
				<polygon style="fill:none;stroke:#010101;" points="129.322266,411.294922 136.370605,413.15625 141.509766,407.979492 
					139.601562,400.942383 132.554199,399.081055 127.40918,404.25293 				"/>
				<polygon style="fill:none;stroke:#010101;" points="141.431641,407.890625 148.485352,409.751953 153.630371,404.581055 
					151.711914,397.542969 144.668945,395.677734 139.528809,400.848633 				"/>
				<polygon style="fill:none;stroke:#010101;" points="135.598633,386.982422 142.646973,388.848633 147.791016,383.682617 
					145.878906,376.639648 138.830566,374.773438 133.691406,379.950195 				"/>
				<polygon style="fill:none;stroke:#010101;" points="144.663574,395.6875 151.711914,397.553711 156.856934,392.382812 
					154.943848,385.345703 147.896484,383.478516 142.756348,388.650391 				"/>
			</g>
			<path style="fill:none;stroke:#010101;" d="M136.380859,384.219727"/>
		</g>
		<g>
			<g>
				<polygon style="fill:none;stroke:#010101;" points="184.204102,373.084961 179.089844,378.287109 181.039551,385.314453 
					188.103027,387.138672 193.211914,381.936523 191.26709,374.90918 				"/>
				<polygon style="fill:none;stroke:#010101;" points="187.248535,360.875977 182.13916,366.078125 184.088867,373.105469 
					191.142578,374.929688 196.250977,369.727539 194.306152,362.700195 				"/>
				<polygon style="fill:none;stroke:#010101;" points="196.459961,369.722656 191.350098,374.918945 193.294922,381.946289 
					200.358398,383.776367 205.467285,378.579102 203.522461,371.551758 				"/>
				<polygon style="fill:none;stroke:#010101;" points="199.404785,357.404297 194.291016,362.612305 196.240723,369.638672 
					203.29834,371.463867 208.407715,366.260742 206.463379,359.233398 				"/>
				<polygon style="fill:none;stroke:#010101;" points="175.091797,364.341797 169.98291,369.544922 171.932617,376.567383 
					178.991211,378.396484 184.10498,373.199219 182.150391,366.166992 				"/>
				<polygon style="fill:none;stroke:#010101;" points="172.052734,376.555664 166.938477,381.753906 168.888672,388.78125 
					175.952148,390.605469 181.060547,385.40332 179.116211,378.380859 				"/>
				<polygon style="fill:none;stroke:#010101;" points="193.097168,381.832031 187.988281,387.03418 189.938477,394.060547 
					196.996094,395.885742 202.110352,390.683594 200.160645,383.65625 				"/>
				<polygon style="fill:none;stroke:#010101;" points="181.054688,385.397461 175.941895,390.599609 177.895996,397.626953 
					184.95459,399.451172 190.068359,394.253906 188.119141,387.227539 				"/>
			</g>
			<path style="fill:none;stroke:#010101;" d="M195.120117,383.880859"/>
		</g>
		<g>
			<g>
				<polygon style="fill:none;stroke:#010101;" points="160.646484,406.233398 162.55957,413.270508 169.607422,415.131836 
					174.752441,409.960938 172.839844,402.928711 165.786621,401.057617 				"/>
				<polygon style="fill:none;stroke:#010101;" points="151.644043,397.444336 153.557617,404.476562 160.60498,406.342773 
					165.745117,401.171875 163.831543,394.133789 156.78418,392.267578 				"/>
				<polygon style="fill:none;stroke:#010101;" points="163.936035,393.957031 165.844238,400.989258 172.897461,402.855469 
					178.031738,397.678711 176.123535,390.641602 169.070801,388.78125 				"/>
				<polygon style="fill:none;stroke:#010101;" points="154.787598,385.199219 156.695312,392.236328 163.743164,394.103516 
					168.883301,388.931641 166.970215,381.894531 159.921875,380.02832 				"/>
				<polygon style="fill:none;stroke:#010101;" points="148.500488,409.68457 150.418945,416.72168 157.467285,418.583008 
					162.601562,413.411133 160.693848,406.374023 153.645508,404.507812 				"/>
				<polygon style="fill:none;stroke:#010101;" points="157.508789,418.478516 159.421875,425.510742 166.469727,427.376953 
					171.604492,422.206055 169.701172,415.163086 162.647949,413.301758 				"/>
				<polygon style="fill:none;stroke:#010101;" points="172.688965,402.964844 174.601562,410.001953 181.649414,411.869141 
					186.783691,406.692383 184.881348,399.660156 177.829102,397.792969 				"/>
				<polygon style="fill:none;stroke:#010101;" points="169.691406,415.163086 171.599609,422.206055 178.651855,424.066406 
					183.791992,418.895508 181.878906,411.858398 174.831055,409.992188 				"/>
			</g>
			<path style="fill:none;stroke:#010101;" d="M175.477051,402.255859"/>
		</g>
		<g>
			<g>
				<polygon style="fill:none;stroke:#010101;" points="135.316895,432.308594 142.375488,434.12207 147.479004,428.914062 
					145.519043,421.887695 138.455566,420.073242 133.352051,425.286133 				"/>
				<polygon style="fill:none;stroke:#010101;" points="123.228516,435.795898 130.287109,437.609375 135.389648,432.401367 
					133.429688,425.380859 126.367188,423.566406 121.268555,428.773438 				"/>
				<polygon style="fill:none;stroke:#010101;" points="126.256836,423.389648 133.320312,425.203125 138.418945,419.990234 
					136.463867,412.973633 129.400391,411.15918 124.296875,416.362305 				"/>
				<polygon style="fill:none;stroke:#010101;" points="114.126953,427.022461 121.195801,428.836914 126.299316,423.623047 
					124.339355,416.601562 117.27002,414.787109 112.172363,420 				"/>
				<polygon style="fill:none;stroke:#010101;" points="132.314941,444.574219 139.37793,446.387695 144.487305,441.174805 
					142.521484,434.154297 135.458008,432.339844 130.360352,437.546875 				"/>
				<polygon style="fill:none;stroke:#010101;" points="144.408203,441.086914 151.47168,442.895508 156.570312,437.6875 
					154.610352,430.666016 147.546875,428.851562 142.443359,434.064453 				"/>
				<polygon style="fill:none;stroke:#010101;" points="138.414062,420.224609 145.482422,422.038086 150.585938,416.831055 
					148.621094,409.804688 141.5625,407.990234 136.458984,413.203125 				"/>
				<polygon style="fill:none;stroke:#010101;" points="147.546875,428.857422 154.610352,430.671875 159.713867,425.463867 
					157.753906,418.436523 150.695312,416.623047 145.591797,421.835938 				"/>
			</g>
			<path style="fill:none;stroke:#010101;" d="M139.180176,417.446289"/>
		</g>
		<g>
			<g>
				<polygon style="fill:none;stroke:#010101;" points="199.040039,403.006836 193.899902,408.177734 195.808105,415.214844 
					202.860352,417.082031 208.005859,411.910156 206.087402,404.873047 				"/>
				<polygon style="fill:none;stroke:#010101;" points="202.157227,390.813477 197.012207,395.990234 198.92041,403.027344 
					205.972656,404.893555 211.10791,399.716797 209.205566,392.679688 				"/>
				<polygon style="fill:none;stroke:#010101;" points="211.316406,399.711914 206.17627,404.882812 208.083984,411.925781 
					215.131348,413.787109 220.276367,408.615234 218.36377,401.578125 				"/>
				<polygon style="fill:none;stroke:#010101;" points="214.323242,387.415039 209.183594,392.591797 211.092285,399.628906 
					218.14502,401.495117 223.279785,396.318359 221.371094,389.280273 				"/>
				<polygon style="fill:none;stroke:#010101;" points="189.97998,394.217773 184.834961,399.389648 186.748047,406.421875 
					193.800781,408.291992 198.935547,403.116211 197.027344,396.078125 				"/>
				<polygon style="fill:none;stroke:#010101;" points="186.867676,406.405273 181.727539,411.577148 183.635742,418.614258 
					190.688477,420.480469 195.828613,415.30957 193.916016,408.271484 				"/>
				<polygon style="fill:none;stroke:#010101;" points="207.886719,411.800781 202.750977,416.972656 204.654297,424.014648 
					211.707031,425.875 216.84668,420.699219 214.939453,413.666992 				"/>
				<polygon style="fill:none;stroke:#010101;" points="195.828613,415.30957 190.683105,420.480469 192.591309,427.517578 
					199.638672,429.383789 204.778809,424.207031 202.870605,417.169922 				"/>
			</g>
			<path style="fill:none;stroke:#010101;" d="M209.897949,413.860352"/>
		</g>
		<polygon style="fill:none;stroke:#010101;" points="180.721191,431.151367 187.785156,432.959961 192.883301,427.737305 
			190.912109,420.719727 183.844727,418.916016 178.756348,424.128906 		"/>
		<polygon style="fill:none;stroke:#010101;" points="168.414062,434.43457 175.47168,436.259766 180.591797,431.0625 
			178.636719,424.036133 171.578125,422.210938 166.464355,427.408203 		"/>
		<polygon style="fill:none;stroke:#010101;" points="156.330078,437.823242 163.383789,439.673828 168.512695,434.50293 
			166.595215,427.46582 159.546875,425.609375 154.406738,430.786133 		"/>
		<polygon style="fill:none;stroke:#010101;" points="189.770996,439.892578 196.819336,441.749023 201.953613,436.567383 
			200.035156,429.535156 192.982422,427.678711 187.852539,432.855469 		"/>
		<polygon style="fill:none;stroke:#010101;" points="177.537109,443.365234 184.589355,445.220703 189.724609,440.039062 
			187.800781,433.001953 180.75293,431.146484 175.617676,436.328125 		"/>
		<polygon style="fill:none;stroke:#010101;" points="165.416504,446.59668 172.469727,448.458008 177.599121,443.282227 
			175.680664,436.244141 168.633301,434.387695 163.493164,439.569336 		"/>
		<polygon style="fill:none;stroke:#010101;" points="153.348633,450.010742 160.401367,451.867188 165.536133,446.691406 
			163.617676,439.65332 156.56543,437.796875 151.430176,442.978516 		"/>
	</g>
	<g>
		<g>
			<g>
				<polygon style="fill:none;stroke:#010101;" points="591.638672,128.927734 589.142578,135.780273 593.822266,141.368164 
					601.001953,140.104004 603.498047,133.251465 598.811523,127.663574 				"/>
				<polygon style="fill:none;stroke:#010101;" points="589.345703,116.552734 586.847656,123.407715 591.530273,128.993164 
					598.712891,127.731445 601.208984,120.879395 596.524414,115.291016 				"/>
				<polygon style="fill:none;stroke:#010101;" points="601.392578,120.785156 598.901367,127.639648 603.586914,133.223633 
					610.769531,131.964355 613.267578,125.112305 608.581055,119.524414 				"/>
				<polygon style="fill:none;stroke:#010101;" points="598.967773,108.363281 596.47168,115.21582 601.158203,120.80127 
					608.341797,119.539551 610.833008,112.687012 606.150391,107.099121 				"/>
				<polygon style="fill:none;stroke:#010101;" points="579.722656,124.747559 577.224609,131.597168 581.916992,137.185059 
					589.099609,135.92334 591.592773,129.071289 586.90625,123.483398 				"/>
				<polygon style="fill:none;stroke:#010101;" points="582.016602,137.119629 579.513672,143.972168 584.201172,149.557617 
					591.383789,148.299316 593.879883,141.444336 589.195312,135.858398 				"/>
				<polygon style="fill:none;stroke:#010101;" points="603.352539,133.199707 600.859375,140.049805 605.551758,145.640137 
					612.729492,144.373535 615.227539,137.520996 610.536133,131.935547 				"/>
				<polygon style="fill:none;stroke:#010101;" points="593.875,141.444336 591.378906,148.293457 596.064453,153.882324 
					603.249023,152.618164 605.740234,145.765625 601.058594,140.176758 				"/>
			</g>
			<path style="fill:none;stroke:#010101;" d="M606.041992,134.226562"/>
		</g>
		<g>
			<g>
				<polygon style="fill:none;stroke:#010101;" points="558.015625,147.944824 562.671875,153.556641 569.859375,152.328613 
					572.393555,145.491699 567.738281,139.877441 560.548828,141.10498 				"/>
				<polygon style="fill:none;stroke:#010101;" points="546.177734,143.675293 550.832031,149.289551 558.021484,148.062012 
					560.553711,141.224609 555.899414,135.61377 548.710938,136.838379 				"/>
				<polygon style="fill:none;stroke:#010101;" points="555.914062,135.407715 560.564453,141.019531 567.753906,139.794434 
					570.292969,132.95459 565.630859,127.342773 558.448242,128.570801 				"/>
				<polygon style="fill:none;stroke:#010101;" points="543.956055,131.232422 548.612305,136.84668 555.800781,135.621582 
					558.333984,128.781738 553.68457,123.172852 546.494141,124.397949 				"/>
				<polygon style="fill:none;stroke:#010101;" points="548.398438,156.118164 553.047852,161.732422 560.236328,160.504883 
					562.769531,153.666016 558.115234,148.054199 550.925781,149.281738 				"/>
				<polygon style="fill:none;stroke:#010101;" points="560.231445,160.387695 564.885742,165.99707 572.079102,164.771484 
					574.607422,157.932129 569.958008,152.32373 562.764648,153.548828 				"/>
				<polygon style="fill:none;stroke:#010101;" points="567.613281,139.976562 572.27832,145.59082 579.460938,144.363281 
					581.989258,137.520996 577.339844,131.912109 570.151367,133.139648 				"/>
				<polygon style="fill:none;stroke:#010101;" points="569.948242,152.32373 574.602539,157.937988 581.791016,156.710449 
					584.324219,149.873047 579.669922,144.258789 572.481445,145.483887 				"/>
			</g>
			<path style="fill:none;stroke:#010101;" d="M569.859375,138.177734"/>
		</g>
		<g>
			<g>
				<polygon style="fill:none;stroke:#010101;" points="615.257812,156.881836 608.075195,158.148438 605.583984,164.998047 
					610.269531,170.586914 617.452148,169.317871 619.945312,162.468262 				"/>
				<polygon style="fill:none;stroke:#010101;" points="624.829102,148.708496 617.646484,149.977539 615.154297,156.827148 
					619.839844,162.413086 627.018555,161.148438 629.515625,154.293945 				"/>
				<polygon style="fill:none;stroke:#010101;" points="627.196289,161.263184 620.007812,162.527344 617.520508,169.379883 
					622.202148,174.962891 629.385742,173.698242 631.883789,166.846191 				"/>
				<polygon style="fill:none;stroke:#010101;" points="636.736328,152.941406 629.551758,154.210449 627.060547,161.062988 
					631.75293,166.645996 638.930664,165.378906 641.421875,158.526855 				"/>
				<polygon style="fill:none;stroke:#010101;" points="612.923828,144.472656 605.740234,145.744629 603.242188,152.594238 
					607.929688,158.179688 615.112305,156.913086 617.605469,150.060547 				"/>
				<polygon style="fill:none;stroke:#010101;" points="603.347656,152.649414 596.164062,153.913574 593.676758,160.766113 
					598.363281,166.354004 605.551758,165.084961 608.038086,158.234863 				"/>
				<polygon style="fill:none;stroke:#010101;" points="617.426758,169.166016 610.249023,170.432617 607.75293,177.288086 
					612.4375,182.871094 619.621094,181.606934 622.119141,174.752441 				"/>
				<polygon style="fill:none;stroke:#010101;" points="605.541992,165.082031 598.363281,166.346191 595.87207,173.19873 
					600.557617,178.78418 607.735352,177.517578 610.233398,170.66748 				"/>
			</g>
			<path style="fill:none;stroke:#010101;" d="M617.879883,172.007324"/>
		</g>
		<g>
			<g>
				<polygon style="fill:none;stroke:#010101;" points="576.833984,170.193359 574.300781,177.029297 578.960938,182.641602 
					586.150391,181.411133 588.682617,174.577637 584.022461,168.962891 				"/>
				<polygon style="fill:none;stroke:#010101;" points="574.607422,157.804688 572.079102,164.646973 576.741211,170.258789 
					583.923828,169.02832 586.453125,162.188965 581.791016,156.57959 				"/>
				<polygon style="fill:none;stroke:#010101;" points="586.633789,162.103027 584.111328,168.939453 588.767578,174.55127 
					595.950195,173.323242 598.484375,166.486328 593.822266,160.873047 				"/>
				<polygon style="fill:none;stroke:#010101;" points="584.273438,149.664551 581.740234,156.501465 586.400391,162.113281 
					593.587891,160.888184 596.117188,154.045898 591.461914,148.434082 				"/>
				<polygon style="fill:none;stroke:#010101;" points="564.943359,165.950195 562.415039,172.786133 567.070312,178.397949 
					574.257812,177.172852 576.793945,170.334473 572.131836,164.719727 				"/>
				<polygon style="fill:none;stroke:#010101;" points="567.169922,178.336426 564.641602,185.174805 569.296875,190.78418 
					576.484375,189.559082 579.018555,182.719238 574.358398,177.108398 				"/>
				<polygon style="fill:none;stroke:#010101;" points="588.536133,174.522461 586.009766,181.359375 590.65918,186.971191 
					597.847656,185.748535 600.380859,178.903809 595.726562,173.291992 				"/>
				<polygon style="fill:none;stroke:#010101;" points="579.013672,182.716797 576.474609,189.553711 581.139648,195.165527 
					588.322266,193.937988 590.851562,187.098633 586.196289,181.487305 				"/>
			</g>
			<path style="fill:none;stroke:#010101;" d="M591.217773,175.564941"/>
		</g>
		<g>
			<g>
				<polygon style="fill:none;stroke:#010101;" points="541.069336,176.709473 545.764648,182.286621 552.943359,181.009766 
					555.430664,174.154785 550.733398,168.577148 543.555664,169.85498 				"/>
				<polygon style="fill:none;stroke:#010101;" points="529.199219,172.530762 533.901367,178.108887 541.074219,176.832031 
					543.560547,169.974609 538.858398,164.396484 531.679688,165.67627 				"/>
				<polygon style="fill:none;stroke:#010101;" points="538.873047,164.19043 543.570312,169.768555 550.749023,168.486328 
					553.234375,161.633789 548.532227,156.056152 541.354492,157.333008 				"/>
				<polygon style="fill:none;stroke:#010101;" points="526.894531,160.105957 531.591797,165.683594 538.769531,164.404297 
					541.250977,157.549316 536.553711,151.97168 529.375977,153.250977 				"/>
				<polygon style="fill:none;stroke:#010101;" points="531.508789,184.956055 536.204102,190.533691 543.383789,189.254395 
					545.865234,182.396973 541.167969,176.821777 533.990234,178.098633 				"/>
				<polygon style="fill:none;stroke:#010101;" points="543.376953,189.137207 548.074219,194.715332 555.25293,193.43457 
					557.733398,186.577637 553.038086,180.999512 545.859375,182.279297 				"/>
				<polygon style="fill:none;stroke:#010101;" points="550.613281,168.67627 555.310547,174.254395 562.493164,172.973633 
					564.96875,166.116699 560.279297,160.538574 553.088867,161.816406 				"/>
				<polygon style="fill:none;stroke:#010101;" points="553.033203,181.007324 557.728516,186.58252 564.911133,185.303223 
					567.394531,178.448242 562.697266,172.870117 555.518555,174.147461 				"/>
			</g>
			<path style="fill:none;stroke:#010101;" d="M552.844727,166.857422"/>
		</g>
		<g>
			<g>
				<polygon style="fill:none;stroke:#010101;" points="609.961914,189.855957 602.779297,191.083496 600.245117,197.920898 
					604.900391,203.535156 612.089844,202.307129 614.62207,195.467773 				"/>
				<polygon style="fill:none;stroke:#010101;" points="619.580078,181.739258 612.392578,182.961914 609.858398,189.804199 
					614.518555,195.413574 621.696289,194.188477 624.235352,187.346191 				"/>
				<polygon style="fill:none;stroke:#010101;" points="621.875,194.302734 614.68457,195.527832 612.151367,202.370117 
					616.807617,207.981934 624.000977,206.754395 626.529297,199.916992 				"/>
				<polygon style="fill:none;stroke:#010101;" points="631.460938,186.037598 624.270508,187.263184 621.744141,194.102539 
					626.398438,199.71582 633.586914,198.48584 636.121094,191.649414 				"/>
				<polygon style="fill:none;stroke:#010101;" points="607.695312,177.437012 600.511719,178.662109 597.973633,185.500977 
					602.632812,191.115234 609.816406,189.887207 612.349609,183.048828 				"/>
				<polygon style="fill:none;stroke:#010101;" points="598.082031,185.553223 590.893555,186.783691 588.360352,193.619629 
					593.019531,199.234375 600.205078,198.008789 602.736328,191.16748 				"/>
				<polygon style="fill:none;stroke:#010101;" points="612.0625,202.15625 604.875,203.383789 602.34082,210.220215 
					606.996094,215.832031 614.189453,214.604492 616.717773,207.765625 				"/>
				<polygon style="fill:none;stroke:#010101;" points="600.205078,198.001465 593.014648,199.229004 590.486328,206.063477 
					595.142578,211.677734 602.331055,210.450195 604.859375,203.613281 				"/>
			</g>
			<path style="fill:none;stroke:#010101;" d="M612.500977,204.999512"/>
		</g>
		<polygon style="fill:none;stroke:#010101;" points="578.706055,202.132324 583.413086,207.705078 590.591797,206.414551 
			593.0625,199.557617 588.360352,193.984375 581.176758,195.277832 		"/>
		<polygon style="fill:none;stroke:#010101;" points="566.783203,197.662598 571.470703,203.243164 578.65332,201.981445 
			581.144531,195.129395 576.458984,189.543945 569.28125,190.810547 		"/>
		<polygon style="fill:none;stroke:#010101;" points="554.975586,193.400879 559.642578,199.010254 566.826172,197.774902 
			569.354492,190.930176 564.6875,185.323242 557.499023,186.558594 		"/>
		<polygon style="fill:none;stroke:#010101;" points="580.999023,214.503418 585.660156,220.106445 592.848633,218.874023 
			595.37207,212.031738 590.711914,206.425781 583.521484,207.663574 		"/>
		<polygon style="fill:none;stroke:#010101;" points="569.025391,210.225098 573.686523,215.832031 580.875,214.59668 
			583.398438,207.751953 578.736328,202.145996 571.548828,203.383789 		"/>
		<polygon style="fill:none;stroke:#010101;" points="557.270508,205.823242 561.941406,211.430176 569.125,210.197266 
			571.648438,203.352539 566.987305,197.748535 559.803711,198.983887 		"/>
		<polygon style="fill:none;stroke:#010101;" points="545.472656,201.595215 550.139648,207.202148 557.322266,205.964355 
			559.845703,199.12207 555.179688,193.515625 547.996094,194.754395 		"/>
	</g>
	<path style="fill:none;stroke:#010101;" d="M487.854492,264.536133c-6.745117-1.688477-11.301758-4.69873-14.083984-17.108398"/>
	<path style="fill:none;stroke:#010101;" d="M569.125,210.197266c-3.701172,10.490723-3.696289,13.021484,0.515625,22.29541"/>
	<path style="fill:none;stroke:#010101;" d="M549.404297,238.396484c-0.844727,5.058594,4.378906,20.804688,13.992188,24.31543"/>
</g>
</svg>
